<svg xmlns="http://www.w3.org/2000/svg" xmlns:xlink="http://www.w3.org/1999/xlink" width="1979.5px" height="654.5px"><path fill-rule="evenodd" fill="rgb(2, 154, 255)" d="M982.500,98.500 L987.500,98.500 L987.500,245.500 L982.500,245.500 L982.500,98.500 Z"></path>
<path fill-rule="evenodd" stroke="rgb(2, 154, 255)" stroke-width="5px" stroke-linecap="butt" stroke-linejoin="miter" fill="none" d="M876.500,62.500 C876.500,62.500 629.242,65.984 539.500,153.500 "></path>
<path fill-rule="evenodd" stroke="rgb(2, 154, 255)" stroke-width="5px" stroke-linecap="butt" stroke-linejoin="miter" fill="none" d="M868.500,56.500 C868.500,56.500 426.732,11.539 335.500,97.500 "></path>
<path fill-rule="evenodd" stroke="rgb(2, 154, 255)" stroke-width="5px" stroke-linecap="butt" stroke-linejoin="miter" fill="none" d="M868.500,575.500 C868.500,575.500 598.754,586.751 501.500,536.500 "></path>
<path fill-rule="evenodd" stroke="rgb(2, 154, 255)" stroke-width="5px" stroke-linecap="butt" stroke-linejoin="miter" fill="none" d="M868.500,589.500 C868.500,589.500 287.995,689.734 251.500,442.500 "></path>
<path fill-rule="evenodd" stroke="rgb(2, 154, 255)" stroke-width="5px" stroke-linecap="butt" stroke-linejoin="miter" fill="none" d="M872.500,567.500 C872.500,567.500 757.019,558.278 726.500,496.500 "></path>
<path fill-rule="evenodd" stroke="rgb(2, 154, 255)" stroke-width="5px" stroke-linecap="butt" stroke-linejoin="miter" fill="none" d="M1109.500,572.752 C1109.500,572.752 1286.246,629.865 1383.500,579.735 "></path>
<path fill-rule="evenodd" stroke="rgb(2, 154, 255)" stroke-width="5px" stroke-linecap="butt" stroke-linejoin="miter" fill="none" d="M1109.500,586.718 C1109.500,586.718 1587.035,712.978 1646.500,509.903 "></path>
<path fill-rule="evenodd" stroke="rgb(2, 154, 255)" stroke-width="5px" stroke-linecap="butt" stroke-linejoin="miter" fill="none" d="M1105.500,564.771 C1105.500,564.771 1170.981,575.523 1201.500,513.893 "></path>
<path fill-rule="evenodd" stroke="rgb(2, 154, 255)" stroke-width="5px" stroke-linecap="butt" stroke-linejoin="miter" fill="none" d="M915.500,95.500 C915.500,95.500 829.715,134.340 807.500,201.500 "></path>
<path fill-rule="evenodd" stroke="rgb(2, 154, 255)" stroke-width="5px" stroke-dasharray="20, 10" stroke-linecap="butt" stroke-linejoin="miter" fill="none" d="M1102.500,55.500 C1102.500,55.500 1295.187,26.830 1396.500,74.500 "></path>
<path fill-rule="evenodd" stroke="rgb(2, 154, 255)" stroke-width="5px" stroke-dasharray="20, 10" stroke-linecap="butt" stroke-linejoin="miter" fill="none" d="M1501.500,131.500 C1501.500,131.500 1539.659,157.756 1538.500,220.500 "></path>
<path fill-rule="evenodd" stroke="rgb(2, 154, 255)" stroke-width="5px" stroke-dasharray="20, 10" stroke-linecap="butt" stroke-linejoin="miter" fill="none" d="M1114.500,59.500 C1114.500,59.500 1239.719,195.676 1477.500,235.500 "></path>
<path fill-rule="evenodd" stroke="rgb(2, 154, 255)" stroke-width="5px" stroke-linecap="butt" stroke-linejoin="miter" fill="none" d="M966.520,46.292 C966.520,46.292 1124.218,95.137 1169.953,202.493 "></path>
<path fill-rule="evenodd" stroke="rgb(2, 154, 255)" stroke-width="5px" stroke-linecap="butt" stroke-linejoin="miter" fill="none" d="M1390.859,649.500 C1234.885,649.500 1093.203,615.586 988.500,560.337 C883.797,615.586 742.115,649.500 586.141,649.500 C263.805,649.500 2.500,504.664 2.500,326.000 C2.500,147.336 263.805,2.500 586.141,2.500 C742.115,2.500 883.797,36.414 988.500,91.663 C1093.203,36.414 1234.885,2.500 1390.859,2.500 C1713.195,2.500 1974.500,147.336 1974.500,326.000 C1974.500,504.664 1713.195,649.500 1390.859,649.500 Z"></path>
<path fill-rule="evenodd" stroke="rgb(2, 154, 255)" stroke-width="2px" stroke-dasharray="8, 4" stroke-linecap="butt" stroke-linejoin="miter" fill="rgb(2, 154, 255)" d="M871.500,19.500 L1105.500,19.500 C1109.918,19.500 1113.500,23.082 1113.500,27.500 L1113.500,91.500 C1113.500,95.918 1109.918,99.500 1105.500,99.500 L871.500,99.500 C867.082,99.500 863.500,95.918 863.500,91.500 L863.500,27.500 C863.500,23.082 867.082,19.500 871.500,19.500 Z"></path>
<text kerning="auto" font-family="Adobe Heiti Std" fill="rgb(0, 0, 0)" font-size="28px" x="983.5px" y="71.024px"><tspan font-size="28px" font-family="PingFangSC" fill="#FFFFFF">&#20132;&#27969;&#32593;</tspan></text>
<image x="902.5px" y="34.5px" width="52px" height="52px" xlink:href="./img/n-0_x-902_y-34_w-52_h-52.png"></image>
<path fill-rule="evenodd" stroke="rgb(2, 154, 255)" stroke-width="2px" stroke-dasharray="8, 4" stroke-linecap="butt" stroke-linejoin="miter" fill="rgb(2, 154, 255)" d="M871.500,541.500 L1105.500,541.500 C1109.918,541.500 1113.500,545.082 1113.500,549.500 L1113.500,613.500 C1113.500,617.918 1109.918,621.500 1105.500,621.500 L871.500,621.500 C867.082,621.500 863.500,617.918 863.500,613.500 L863.500,549.500 C863.500,545.082 867.082,541.500 871.500,541.500 Z"></path>
<text kerning="auto" font-family="Adobe Heiti Std" fill="rgb(0, 0, 0)" font-size="28px" x="983.5px" y="591.024px"><tspan font-size="28px" font-family="PingFangSC" fill="#FFFFFF">&#30452;&#27969;&#32593;</tspan></text>
<text kerning="auto" font-family="Adobe Heiti Std" fill="rgb(0, 0, 0)" transform="matrix( 0.96529766605578, 0.26115209343841, -0.26115209343842, 0.96529766605578,1355.10315238014, 234.850483127047)" font-size="14px"><tspan font-size="14px" font-family="PingFangSC" fill="#FFFFFF">&#30005;&#36741;&#28909;</tspan></text>
<path fill-rule="evenodd" stroke="rgb(2, 154, 255)" stroke-width="5px" stroke-dasharray="20, 10" stroke-linecap="butt" stroke-linejoin="miter" fill="none" d="M1550.246,253.778 C1550.246,253.778 1601.900,270.378 1636.500,265.500 "></path>
<path fill-rule="evenodd" stroke="rgb(2, 154, 255)" stroke-width="5px" stroke-dasharray="20, 10" stroke-linecap="butt" stroke-linejoin="miter" fill="none" d="M1551.435,235.753 C1551.435,235.753 1629.176,229.011 1662.500,218.500 "></path>
<path fill-rule="evenodd" stroke="rgb(2, 154, 255)" stroke-width="5px" stroke-dasharray="20, 10" stroke-linecap="butt" stroke-linejoin="miter" fill="none" d="M1647.409,123.381 C1647.409,123.381 1712.136,166.904 1736.260,192.075 "></path>
<path fill-rule="evenodd" stroke="rgb(2, 154, 255)" stroke-width="5px" stroke-dasharray="20, 10" stroke-linecap="butt" stroke-linejoin="miter" fill="none" d="M1672.500,107.500 C1672.500,107.500 1784.410,104.254 1842.500,195.500 "></path>
<path fill-rule="evenodd" stroke="rgb(2, 154, 255)" stroke-width="5px" stroke-linecap="butt" stroke-linejoin="miter" fill="none" d="M996.500,484.500 L996.500,545.500 "></path>
<path fill-rule="evenodd" stroke="rgb(2, 154, 255)" stroke-width="2px" stroke-linecap="butt" stroke-linejoin="miter" fill-opacity="0.4" fill="rgb(2, 154, 255)" d="M545.891,151.500 C600.230,151.500 644.281,165.736 644.281,183.297 C644.281,200.858 600.230,215.094 545.891,215.094 C491.551,215.094 447.500,200.858 447.500,183.297 C447.500,165.736 491.551,151.500 545.891,151.500 Z"></path>
<image x="482.5px" y="89.5px" width="32px" height="112px" xlink:href="./img/n-1_x-482_y-89_w-32_h-112.png"></image>
<image x="531.5px" y="89.5px" width="32px" height="112px" xlink:href="./img/n-2_x-531_y-89_w-32_h-112.png"></image>
<image x="577.5px" y="89.5px" width="32px" height="112px" xlink:href="./img/n-3_x-577_y-89_w-32_h-112.png"></image>
<text kerning="auto" font-family="Adobe Heiti Std" fill="rgb(0, 0, 0)" font-size="16px" x="499.5px" y="248.196px"><tspan font-size="16px" font-family="PingFangSC" fill="#FFFFFF">&#20132;&#27969;&#20805;&#30005;&#26729;</tspan></text>
<path fill-rule="evenodd" stroke="rgb(2, 154, 255)" stroke-width="2px" stroke-linecap="butt" stroke-linejoin="miter" fill-opacity="0.4" fill="rgb(2, 154, 255)" d="M255.891,378.500 C310.230,378.500 354.281,392.736 354.281,410.297 C354.281,427.858 310.230,442.094 255.891,442.094 C201.551,442.094 157.500,427.858 157.500,410.297 C157.500,392.736 201.551,378.500 255.891,378.500 Z"></path>
<image x="178.5px" y="297.5px" width="150px" height="120px" xlink:href="./img/n-4_x-178_y-297_w-150_h-120.png"></image>
<text kerning="auto" font-family="Adobe Heiti Std" fill="rgb(0, 0, 0)" font-size="16px" x="180.5px" y="471.241px"><tspan font-size="16px" font-family="PingFangSC" fill="#FFFFFF">&#25968;&#25454;&#20013;&#24515;</tspan></text>
<path fill-rule="evenodd" stroke="rgb(2, 154, 255)" stroke-width="2px" stroke-linecap="butt" stroke-linejoin="miter" fill-opacity="0.4" fill="rgb(2, 154, 255)" d="M1658.891,448.500 C1713.230,448.500 1757.281,462.736 1757.281,480.297 C1757.281,497.858 1713.230,512.094 1658.891,512.094 C1604.551,512.094 1560.500,497.858 1560.500,480.297 C1560.500,462.736 1604.551,448.500 1658.891,448.500 Z"></path>
<image x="1614.5px" y="394.5px" width="26px" height="107px" xlink:href="./img/n-5_x-1614_y-394_w-26_h-107.png"></image>
<image x="1648.5px" y="393.5px" width="26px" height="107px" xlink:href="./img/n-6_x-1648_y-393_w-26_h-107.png"></image>
<image x="1687.5px" y="393.5px" width="26px" height="107px" xlink:href="./img/n-7_x-1687_y-393_w-26_h-107.png"></image>
<text kerning="auto" font-family="Adobe Heiti Std" fill="rgb(0, 0, 0)" font-size="16px" x="1656.5px" y="539.059px"><tspan font-size="16px" font-family="PingFangSC" fill="#FFFFFF">&#26234;&#24935;&#36335;&#28783;</tspan></text>
<path fill-rule="evenodd" stroke="rgb(2, 154, 255)" stroke-width="2px" stroke-linecap="butt" stroke-linejoin="miter" fill-opacity="0.4" fill="rgb(2, 154, 255)" d="M1215.891,452.500 C1270.230,452.500 1314.281,466.736 1314.281,484.297 C1314.281,501.858 1270.230,516.094 1215.891,516.094 C1161.551,516.094 1117.500,501.858 1117.500,484.297 C1117.500,466.736 1161.551,452.500 1215.891,452.500 Z"></path>
<image x="1166.5px" y="417.5px" width="45px" height="77px" xlink:href="./img/n-8_x-1166_y-417_w-45_h-77.png"></image>
<image x="1220.5px" y="417.5px" width="45px" height="77px" xlink:href="./img/n-9_x-1220_y-417_w-45_h-77.png"></image>
<text kerning="auto" font-family="Adobe Heiti Std" fill="rgb(0, 0, 0)" font-size="16px" x="1210.5px" y="537.106px"><tspan font-size="16px" font-family="PingFangSC" fill="#FFFFFF">&#30452;&#27969;&#29031;&#26126;</tspan></text>
<path fill-rule="evenodd" stroke="rgb(2, 154, 255)" stroke-width="2px" stroke-linecap="butt" stroke-linejoin="miter" fill-opacity="0.4" fill="rgb(2, 154, 255)" d="M1426.891,520.500 C1481.230,520.500 1525.281,534.736 1525.281,552.297 C1525.281,569.858 1481.230,584.094 1426.891,584.094 C1372.551,584.094 1328.500,569.858 1328.500,552.297 C1328.500,534.736 1372.551,520.500 1426.891,520.500 Z"></path>
<image x="1355.5px" y="452.5px" width="49px" height="112px" xlink:href="./img/n-10_x-1355_y-452_w-49_h-112.png"></image>
<image x="1411.5px" y="464.5px" width="49px" height="112px" xlink:href="./img/n-11_x-1411_y-464_w-49_h-112.png"></image>
<image x="1466.5px" y="452.5px" width="49px" height="112px" xlink:href="./img/n-12_x-1466_y-452_w-49_h-112.png"></image>
<text kerning="auto" font-family="Adobe Heiti Std" fill="rgb(0, 0, 0)" font-size="16px" x="1380.5px" y="607.196px"><tspan font-size="16px" font-family="PingFangSC" fill="#FFFFFF">&#30452;&#27969;&#20805;&#30005;&#26729;</tspan></text>
<text kerning="auto" font-family="Adobe Heiti Std" fill="rgb(0, 0, 0)" font-size="16px" x="756.5px" y="289.001px"><tspan font-size="16px" font-family="PingFangSC" fill="#FFFFFF">&#20132;&#27969;&#31354;&#35843;</tspan></text>
<path fill-rule="evenodd" stroke="rgb(2, 154, 255)" stroke-width="2px" stroke-linecap="butt" stroke-linejoin="miter" fill-opacity="0.4" fill="rgb(2, 154, 255)" d="M782.891,192.500 C837.230,192.500 881.281,206.736 881.281,224.297 C881.281,241.858 837.230,256.094 782.891,256.094 C728.551,256.094 684.500,241.858 684.500,224.297 C684.500,206.736 728.551,192.500 782.891,192.500 Z"></path>
<image x="733.5px" y="178.5px" width="104px" height="50px" xlink:href="./img/n-13_x-733_y-178_w-104_h-50.png"></image>
<text kerning="auto" font-family="Adobe Heiti Std" fill="rgb(0, 0, 0)" font-size="16px" x="943.5px" y="342.177px"><tspan font-size="16px" font-family="PingFangSC" fill="#FFFFFF">&#34394;&#25311;&#21516;&#27493;&#26426;</tspan></text>
<path fill-rule="evenodd" stroke="rgb(2, 154, 255)" stroke-width="2px" stroke-linecap="butt" stroke-linejoin="miter" fill-opacity="0.4" fill="rgb(2, 154, 255)" d="M980.891,245.500 C1035.230,245.500 1079.281,259.736 1079.281,277.297 C1079.281,294.858 1035.230,309.094 980.891,309.094 C926.551,309.094 882.500,294.858 882.500,277.297 C882.500,259.736 926.551,245.500 980.891,245.500 Z"></path>
<image x="867.5px" y="172.5px" width="164px" height="124px" xlink:href="./img/n-14_x-867_y-172_w-164_h-124.png"></image>
<image x="935.5px" y="172.5px" width="164px" height="124px" xlink:href="./img/n-15_x-935_y-172_w-164_h-124.png"></image>
<path fill-rule="evenodd" stroke="rgb(2, 154, 255)" stroke-width="2px" stroke-linecap="butt" stroke-linejoin="miter" fill-opacity="0.4" fill="rgb(2, 154, 255)" d="M1186.891,195.500 C1241.230,195.500 1285.281,209.736 1285.281,227.297 C1285.281,244.858 1241.230,259.094 1186.891,259.094 C1132.551,259.094 1088.500,244.858 1088.500,227.297 C1088.500,209.736 1132.551,195.500 1186.891,195.500 Z"></path>
<text kerning="auto" font-family="Adobe Heiti Std" fill="rgb(0, 0, 0)" font-size="16px" x="1159.5px" y="291.958px"><tspan font-size="16px" font-family="PingFangSC" fill="#FFFFFF">&#26799;&#32423;&#20648;&#33021;</tspan></text>
<image x="1126.5px" y="157.5px" width="110px" height="88px" xlink:href="./img/n-16_x-1126_y-157_w-110_h-88.png"></image>
<path fill-rule="evenodd" stroke="rgb(2, 154, 255)" stroke-width="2px" stroke-linecap="butt" stroke-linejoin="miter" fill-opacity="0.4" fill="rgb(2, 154, 255)" d="M1437.891,74.500 C1492.230,74.500 1536.281,88.736 1536.281,106.297 C1536.281,123.858 1492.230,138.094 1437.891,138.094 C1383.551,138.094 1339.500,123.858 1339.500,106.297 C1339.500,88.736 1383.551,74.500 1437.891,74.500 Z"></path>
<image x="1389.5px" y="55.5px" width="84px" height="79px" xlink:href="./img/n-17_x-1389_y-55_w-84_h-79.png"></image>
<text kerning="auto" font-family="Adobe Heiti Std" fill="rgb(0, 0, 0)" font-size="16px" x="1389.5px" y="159.899px"><tspan font-size="16px" font-family="PingFangSC" fill="#FFFFFF">&#31354;&#27668;&#28304;&#28909;&#27893;</tspan></text>
<image x="1562.5px" y="63.5px" width="110px" height="75px" xlink:href="./img/n-18_x-1562_y-63_w-110_h-75.png"></image>
<text kerning="auto" font-family="Adobe Heiti Std" fill="rgb(0, 0, 0)" transform="matrix( 0.89958085817954, 0.43675425538508, -0.43675425538508, 0.89958085817954,1574.93350629531, 131.078966588082)" font-size="14px"><tspan font-size="14px" font-family="PingFangSC" fill="#FFFFFF">&#24066;&#25919;&#20379;&#27700;</tspan></text>
<text kerning="auto" font-family="Adobe Heiti Std" fill="rgb(0, 0, 0)" font-size="14px" x="1491.5px" y="316.778px"><tspan font-size="14px" font-family="PingFangSC" fill="#FFFFFF">&#24658;&#28201;&#27700;&#31665;</tspan></text>
<path fill-rule="evenodd" stroke="rgb(63, 236, 255)" stroke-width="2px" stroke-linecap="butt" stroke-linejoin="miter" fill-opacity="0.4" fill="rgb(1, 197, 247)" d="M1512.500,210.500 C1535.696,210.500 1554.500,228.632 1554.500,251.000 C1554.500,273.367 1535.696,291.500 1512.500,291.500 C1489.304,291.500 1470.500,273.367 1470.500,251.000 C1470.500,228.632 1489.304,210.500 1512.500,210.500 Z"></path>
<image x="1486.5px" y="253.5px" width="48px" height="25px" xlink:href="./img/n-19_x-1486_y-253_w-48_h-25.png"></image>
<image x="1501.5px" y="226.5px" width="23px" height="22px" xlink:href="./img/n-20_x-1501_y-226_w-23_h-22.png"></image>
<image x="1622.5px" y="252.5px" width="29px" height="47px" xlink:href="./img/n-21_x-1622_y-252_w-29_h-47.png"></image>
<text kerning="auto" font-family="Adobe Heiti Std" fill="rgb(0, 0, 0)" font-size="14px" x="1608.5px" y="319.015px"><tspan font-size="14px" font-family="PingFangSC" fill="#FFFFFF">&#21518;&#21220;&#28909;&#27700;</tspan></text>
<image x="1658.5px" y="172.5px" width="92px" height="50px" xlink:href="./img/n-22_x-1658_y-172_w-92_h-50.png"></image>
<text kerning="auto" font-family="Adobe Heiti Std" fill="rgb(0, 0, 0)" font-size="14px" x="1665.5px" y="245.411px"><tspan font-size="14px" font-family="PingFangSC" fill="#FFFFFF">&#22826;&#38451;&#33021;&#38598;&#28909;&#22120;</tspan></text>
<image x="1809.5px" y="201.5px" width="56px" height="73px" xlink:href="./img/n-23_x-1809_y-201_w-56_h-73.png"></image>
<text kerning="auto" font-family="Adobe Heiti Std" fill="rgb(0, 0, 0)" font-size="14px" x="1817.5px" y="297.225px"><tspan font-size="14px" font-family="PingFangSC" fill="#FFFFFF">&#26222;&#36890;&#29992;&#27700;</tspan></text>
<path fill-rule="evenodd" stroke="rgb(2, 154, 255)" stroke-width="2px" stroke-linecap="butt" stroke-linejoin="miter" fill-opacity="0.4" fill="rgb(2, 154, 255)" d="M492.891,470.500 C547.230,470.500 591.281,484.736 591.281,502.297 C591.281,519.858 547.230,534.094 492.891,534.094 C438.551,534.094 394.500,519.858 394.500,502.297 C394.500,484.736 438.551,470.500 492.891,470.500 Z"></path>
<image x="427.5px" y="408.5px" width="144px" height="114px" xlink:href="./img/n-24_x-427_y-408_w-144_h-114.png"></image>
<text kerning="auto" font-family="Adobe Heiti Std" fill="rgb(0, 0, 0)" font-size="16px" x="450.5px" y="556.001px"><tspan font-size="16px" font-family="PingFangSC" fill="#FFFFFF">&#30452;&#27969;&#31354;&#35843;</tspan></text>
<path fill-rule="evenodd" stroke="rgb(2, 154, 255)" stroke-width="2px" stroke-linecap="butt" stroke-linejoin="miter" fill-opacity="0.4" fill="rgb(2, 154, 255)" d="M728.891,433.500 C783.230,433.500 827.281,447.736 827.281,465.297 C827.281,482.858 783.230,497.094 728.891,497.094 C674.551,497.094 630.500,482.858 630.500,465.297 C630.500,447.736 674.551,433.500 728.891,433.500 Z"></path>
<image x="645.5px" y="410.5px" width="173px" height="83px" xlink:href="./img/n-25_x-645_y-410_w-173_h-83.png"></image>
<text kerning="auto" font-family="Adobe Heiti Std" fill="rgb(0, 0, 0)" font-size="16px" x="695.5px" y="519.536px"><tspan font-size="16px" font-family="PingFangSC" fill="#FFFFFF">&#20809;&#20239;</tspan></text>
<path fill-rule="evenodd" stroke="rgb(2, 154, 255)" stroke-width="2px" stroke-linecap="butt" stroke-linejoin="miter" fill-opacity="0.4" fill="rgb(2, 154, 255)" d="M992.891,421.500 C1047.230,421.500 1091.281,435.736 1091.281,453.297 C1091.281,470.858 1047.230,485.094 992.891,485.094 C938.551,485.094 894.500,470.858 894.500,453.297 C894.500,435.736 938.551,421.500 992.891,421.500 Z"></path>
<image x="897.5px" y="425.5px" width="101px" height="50px" xlink:href="./img/n-26_x-897_y-425_w-101_h-50.png"></image>
<image x="947.5px" y="405.5px" width="101px" height="50px" xlink:href="./img/n-27_x-947_y-405_w-101_h-50.png"></image>
<image x="987.5px" y="423.5px" width="101px" height="50px" xlink:href="./img/n-28_x-987_y-423_w-101_h-50.png"></image>
<text kerning="auto" font-family="Adobe Heiti Std" fill="rgb(0, 0, 0)" font-size="16px" x="938.5px" y="504.958px"><tspan font-size="16px" font-family="PingFangSC" fill="#FFFFFF">&#20648;&#33021;</tspan></text>
<path fill-rule="evenodd" stroke="rgb(2, 154, 255)" stroke-width="2px" stroke-linecap="butt" stroke-linejoin="miter" fill-opacity="0.4" fill="rgb(2, 154, 255)" d="M333.891,95.500 C388.230,95.500 432.281,109.736 432.281,127.297 C432.281,144.858 388.230,159.094 333.891,159.094 C279.551,159.094 235.500,144.858 235.500,127.297 C235.500,109.736 279.551,95.500 333.891,95.500 Z"></path>
<image x="280.5px" y="66.5px" width="46px" height="80px" xlink:href="./img/n-29_x-280_y-66_w-46_h-80.png"></image>
<image x="336.5px" y="66.5px" width="46px" height="80px" xlink:href="./img/n-30_x-336_y-66_w-46_h-80.png"></image>
<text kerning="auto" font-family="Adobe Heiti Std" fill="rgb(0, 0, 0)" font-size="16px" x="298.5px" y="192.106px"><tspan font-size="16px" font-family="PingFangSC" fill="#FFFFFF">&#20132;&#27969;&#29031;&#26126;</tspan></text></svg>